<svg width="95" height="129" viewBox="0 0 95 129" fill="none" xmlns="http://www.w3.org/2000/svg">
<circle cx="46.252" cy="36.752" r="34.7382" stroke="white" stroke-width="4.02761"/>
<ellipse cx="58.0189" cy="18.6774" rx="4.39614" ry="4.39612" fill="white"/>
<path fill-rule="evenodd" clip-rule="evenodd" d="M29.5925 41.1953C28.8389 42.2747 28.1668 43.7994 28.3903 45.4756C28.7291 48.0154 31.3171 48.1258 32.6296 47.8555C32.6722 47.8467 32.7127 47.8329 32.7526 47.8154C35.2238 46.7358 37.2443 44.5837 39.2292 42.7764C39.4384 42.586 39.7419 42.5443 39.9968 42.667L44.5163 44.8428C44.945 45.0492 45.0493 45.6111 44.7136 45.9482C41.6225 49.0525 35.5508 54.302 31.4021 54.9404C25.8093 55.8009 22.5827 50.6386 23.6579 46.7666C23.8286 46.152 24.0653 45.5249 24.3474 44.9053L29.5925 41.1953Z" fill="white"/>
<path fill-rule="evenodd" clip-rule="evenodd" d="M43.0156 21.1635C50.1148 20.6036 60.8114 23.7411 57.2139 32.1352C56.2666 34.3454 54.1602 37.2504 53.1064 38.6401C52.8085 39.033 52.9862 39.611 53.4443 39.7934C56.0781 40.8414 59.9468 43.2017 59.7949 46.5473C59.5798 51.2798 55.2771 53.4312 47.748 54.937C47.5628 54.9689 47.3589 55.0007 47.1406 55.0346L41.9072 54.0629C43.0516 53.9306 44.7145 53.5758 46.8877 52.7856C51.6202 51.0647 52.9117 48.6986 52.4814 47.1928C52.0512 45.687 47.5333 44.1809 42.8008 42.0297C38.0685 39.8785 38.0687 35.3612 39.3594 33.4252C40.65 31.4895 42.5858 29.9351 45.3818 28.3207L46.291 27.8256C46.5174 27.7023 46.7982 27.743 46.9805 27.9252C47.3086 28.2536 47.148 28.8667 46.7422 29.0922C45.9562 29.529 44.9879 30.3422 44.3066 31.7045C43.1069 34.104 44.3234 36.1322 46.2285 37.0971C46.4899 37.2295 46.8135 37.1444 47.0068 36.9243C56.9504 25.6009 44.9047 21.9402 34.4111 27.187C33.1418 27.8216 32.1462 28.5353 31.3799 29.2289L28.0264 29.8159C30.7532 26.3634 37.5606 21.5939 43.0156 21.1635Z" fill="white"/>
<path d="M74.5476 26.6138C73.2374 28.4902 71.9393 30.1873 71.9343 30.1938C69.0305 34.1324 63.2904 34.6837 58.7634 32.8345C59.4147 31.8266 59.7947 30.6266 59.7947 29.3374C59.7946 28.6126 59.6732 27.9164 59.4529 27.2661C59.56 27.2897 59.664 27.3366 59.7566 27.4067C61.1018 28.4262 63.4199 29.7219 65.5876 29.4868C67.1254 29.32 68.8561 28.405 70.3474 27.2261L74.5476 26.6138Z" fill="white"/>
<path d="M0.626506 102.048H3.11411C3.16324 102.466 3.35365 102.846 3.68533 103.19C4.0293 103.522 4.47768 103.786 5.03048 103.983C5.58328 104.167 6.20364 104.259 6.89157 104.259C7.51808 104.259 8.03402 104.192 8.43941 104.056C8.8448 103.921 9.14577 103.731 9.34232 103.485C9.53887 103.24 9.63714 102.945 9.63714 102.601C9.63714 102.269 9.5143 102.017 9.26861 101.845C9.02292 101.661 8.63596 101.514 8.10773 101.403C7.5795 101.28 6.88543 101.157 6.02552 101.034C5.34987 100.936 4.71108 100.801 4.10914 100.629C3.50721 100.445 2.97283 100.211 2.50603 99.9289C2.0515 99.6463 1.68911 99.3024 1.41885 98.897C1.16088 98.4793 1.03189 97.9879 1.03189 97.4228C1.03189 96.7226 1.22844 96.1084 1.62155 95.5802C2.02693 95.0519 2.62273 94.6404 3.40893 94.3456C4.19514 94.0508 5.15946 93.9033 6.30192 93.9033C8.02174 93.9033 9.34232 94.2719 10.2636 95.0089C11.1973 95.7337 11.6518 96.7349 11.6272 98.0125H9.23176C9.18262 97.2877 8.87551 96.7656 8.31042 96.4462C7.75762 96.1268 7.05741 95.9671 6.20978 95.9671C5.42358 95.9671 4.7725 96.0838 4.25656 96.3172C3.7529 96.5506 3.50107 96.9499 3.50107 97.515C3.50107 97.7361 3.56249 97.9326 3.68533 98.1046C3.80818 98.2643 4.01701 98.4056 4.31184 98.5284C4.60666 98.6513 5.00591 98.768 5.50957 98.8785C6.01323 98.9891 6.63974 99.0997 7.38909 99.2102C8.0893 99.3085 8.72195 99.4436 9.28704 99.6156C9.8644 99.7753 10.3558 99.9903 10.7612 100.261C11.1788 100.519 11.4982 100.85 11.7194 101.256C11.9405 101.661 12.051 102.158 12.051 102.748C12.051 103.473 11.8606 104.106 11.4798 104.646C11.1113 105.174 10.5339 105.586 9.7477 105.881C8.97378 106.176 7.96646 106.323 6.72573 106.323C5.84125 106.323 5.06119 106.231 4.38554 106.047C3.7099 105.85 3.12639 105.592 2.63501 105.273C2.14363 104.953 1.74439 104.603 1.43728 104.222C1.13017 103.841 0.909049 103.461 0.77392 103.08C0.651075 102.699 0.601938 102.355 0.626506 102.048Z" fill="white"/>
<path d="M31.1219 102.048H33.6095C33.6586 102.466 33.849 102.846 34.1807 103.19C34.5247 103.522 34.973 103.786 35.5258 103.983C36.0786 104.167 36.699 104.259 37.3869 104.259C38.0134 104.259 38.5294 104.192 38.9348 104.056C39.3402 103.921 39.6411 103.731 39.8377 103.485C40.0342 103.24 40.1325 102.945 40.1325 102.601C40.1325 102.269 40.0097 102.017 39.764 101.845C39.5183 101.661 39.1313 101.514 38.6031 101.403C38.0749 101.28 37.3808 101.157 36.5209 101.034C35.8452 100.936 35.2064 100.801 34.6045 100.629C34.0026 100.445 33.4682 100.211 33.0014 99.9289C32.5469 99.6463 32.1845 99.3024 31.9142 98.897C31.6562 98.4793 31.5273 97.9879 31.5273 97.4228C31.5273 96.7226 31.7238 96.1084 32.1169 95.5802C32.5223 95.0519 33.1181 94.6404 33.9043 94.3456C34.6905 94.0508 35.6548 93.9033 36.7973 93.9033C38.5171 93.9033 39.8377 94.2719 40.759 95.0089C41.6926 95.7337 42.1472 96.7349 42.1226 98.0125H39.7271C39.678 97.2877 39.3709 96.7656 38.8058 96.4462C38.253 96.1268 37.5528 95.9671 36.7051 95.9671C35.9189 95.9671 35.2679 96.0838 34.7519 96.3172C34.2483 96.5506 33.9964 96.9499 33.9964 97.515C33.9964 97.7361 34.0578 97.9326 34.1807 98.1046C34.3035 98.2643 34.5124 98.4056 34.8072 98.5284C35.102 98.6513 35.5013 98.768 36.0049 98.8785C36.5086 98.9891 37.1351 99.0997 37.8845 99.2102C38.5847 99.3085 39.2173 99.4436 39.7824 99.6156C40.3598 99.7753 40.8511 99.9903 41.2565 100.261C41.6742 100.519 41.9936 100.85 42.2147 101.256C42.4358 101.661 42.5464 102.158 42.5464 102.748C42.5464 103.473 42.356 104.106 41.9752 104.646C41.6066 105.174 41.0293 105.586 40.2431 105.881C39.4691 106.176 38.4618 106.323 37.2211 106.323C36.3366 106.323 35.5566 106.231 34.8809 106.047C34.2053 105.85 33.6218 105.592 33.1304 105.273C32.639 104.953 32.2398 104.603 31.9326 104.222C31.6255 103.841 31.4044 103.461 31.2693 103.08C31.1464 102.699 31.0973 102.355 31.1219 102.048Z" fill="white"/>
<path d="M74.498 103.633L73.724 103.946V94.1429H76.1748V106.065H73.724L64.0869 96.6489L64.8608 96.3357V106.065H62.4101V94.1429H64.8608L74.498 103.633Z" fill="white"/>
<path d="M18.0509 100.13V98.0845H25.9376V100.13H18.0509ZM15.0842 102.728L20.686 90.806H23.3394L28.9964 102.728H26.3245L21.423 91.9853H22.6023L17.7377 102.728H15.0842Z" fill="white"/>
<path d="M49.0251 100.132V98.0865H56.9117V100.132H49.0251ZM46.0584 102.73L51.6601 90.8079H54.3135L59.9705 102.73H57.2986L52.3971 91.9872H53.5764L48.7118 102.73H46.0584Z" fill="white"/>
<path d="M83.5863 100.13V98.0845H91.473V100.13H83.5863ZM80.6196 102.728L86.2214 90.806H88.8748L94.5318 102.728H91.8599L86.9584 91.9853H88.1377L83.2731 102.728H80.6196Z" fill="white"/>
<path d="M25.6445 120.979V114.906H26.7718V120.979C26.7718 121.439 26.7061 121.867 26.5745 122.261C26.443 122.656 26.2457 122.999 25.9827 123.29C25.7291 123.581 25.4144 123.807 25.0386 123.966C24.6629 124.126 24.2307 124.206 23.7423 124.206C23.3195 124.206 22.925 124.145 22.5586 124.023C22.1922 123.891 21.8729 123.708 21.6004 123.473C21.328 123.229 21.1072 122.933 20.9381 122.585C20.7785 122.238 20.6892 121.848 20.6704 121.416H21.6991C21.793 121.989 22.0232 122.421 22.3895 122.712C22.7559 123.003 23.2068 123.149 23.7423 123.149C24.1838 123.149 24.5407 123.055 24.8132 122.867C25.095 122.679 25.3017 122.426 25.4332 122.106C25.5741 121.778 25.6445 121.402 25.6445 120.979ZM35.2279 114.906H36.3552V124.065H35.2279V114.906ZM47.2655 124.065L43.9682 114.906H45.18L48.0123 122.853H47.6741L50.3937 114.906H51.6055L54.3251 122.853H53.9869L56.8192 114.906H58.0028L54.7337 124.065H53.5501L50.8446 115.836H51.1546L48.4491 124.065H47.2655ZM65.5759 121.669V120.613H69.9723V121.669H65.5759ZM63.7159 124.065L67.1964 114.906H68.38L71.8887 124.065H70.6769L67.6191 115.779H67.9573L64.8996 124.065H63.7159Z" fill="white"/>
</svg>
