<svg width="118" height="49" viewBox="0 0 118 49" fill="none" xmlns="http://www.w3.org/2000/svg">
<circle cx="24.0522" cy="24.0522" r="22.7343" stroke="white" stroke-width="2.63586"/>
<ellipse cx="31.753" cy="12.2236" rx="2.87704" ry="2.87703" fill="white"/>
<path fill-rule="evenodd" clip-rule="evenodd" d="M13.1507 26.9601C12.6574 27.6665 12.2164 28.6638 12.3626 29.7609C12.5842 31.4231 14.278 31.4954 15.137 31.3185C15.1649 31.3128 15.1919 31.3046 15.218 31.2932C16.8352 30.5866 18.1573 29.1771 19.4563 27.9943C19.5933 27.8699 19.7925 27.8428 19.9593 27.923L22.9163 29.3469C23.1968 29.4819 23.2657 29.8498 23.0462 30.0705C21.0232 32.1021 17.0485 35.5375 14.3333 35.9553C10.6731 36.5182 8.56201 33.1396 9.2659 30.6057C9.37764 30.2035 9.53246 29.7933 9.71707 29.3879L13.1507 26.9601Z" fill="white"/>
<path fill-rule="evenodd" clip-rule="evenodd" d="M21.9344 13.8507C26.5805 13.4843 33.5808 15.5378 31.2264 21.0314C30.6064 22.4779 29.2285 24.3797 28.5389 25.2892C28.3441 25.5463 28.4599 25.9236 28.7596 26.0431C30.4833 26.7289 33.0154 28.2743 32.9159 30.464C32.7749 33.5609 29.9592 34.9688 25.0321 35.9542C24.9114 35.975 24.7786 35.9956 24.6366 36.0177L21.2108 35.381C21.9597 35.2942 23.0474 35.0628 24.4686 34.546C27.5658 33.4198 28.4103 31.8713 28.1287 30.8858C27.8468 29.9004 24.8908 28.9146 21.7938 27.5069C18.6969 26.0991 18.6972 23.1431 19.5418 21.8761C20.3865 20.6091 21.6533 19.5918 23.4832 18.5353L24.078 18.211C24.2261 18.1303 24.4098 18.1572 24.5291 18.2765C24.7438 18.4914 24.6394 18.8925 24.3739 19.0401C23.8594 19.326 23.225 19.8584 22.7791 20.7501C21.9943 22.3203 22.7911 23.647 24.0379 24.2784C24.209 24.3649 24.4202 24.3092 24.5467 24.1651C31.0538 16.7549 23.171 14.3594 16.3036 17.7931C15.4731 18.2083 14.8216 18.6752 14.3202 19.129L12.1248 19.5128C13.9096 17.2534 18.3646 14.1324 21.9344 13.8507Z" fill="white"/>
<path d="M42.5706 17.4174C41.7193 18.6365 40.8762 19.7408 40.8606 19.7612C38.9603 22.3385 35.2041 22.6986 32.2415 21.4887C32.6675 20.8293 32.9153 20.0441 32.9153 19.2006C32.9153 18.7263 32.8359 18.2708 32.6917 17.8452C32.7618 17.8605 32.8302 17.891 32.8909 17.937C33.7713 18.6041 35.2887 19.4521 36.7073 19.2983C37.7126 19.1891 38.8424 18.5892 39.8176 17.8188L42.5706 17.4174Z" fill="white"/>
<path d="M56.5146 21.0153H58.1426C58.1747 21.2886 58.2993 21.5379 58.5164 21.763C58.7415 21.98 59.035 22.1529 59.3967 22.2815C59.7585 22.4021 60.1645 22.4624 60.6147 22.4624C61.0247 22.4624 61.3624 22.4182 61.6277 22.3298C61.893 22.2413 62.09 22.1167 62.2186 21.9559C62.3472 21.7951 62.4116 21.6022 62.4116 21.3771C62.4116 21.16 62.3312 20.9952 62.1704 20.8826C62.0096 20.7621 61.7563 20.6656 61.4106 20.5932C61.0649 20.5128 60.6107 20.4324 60.0479 20.352C59.6058 20.2877 59.1877 20.1993 58.7938 20.0867C58.3998 19.9661 58.0501 19.8134 57.7446 19.6285C57.4472 19.4436 57.21 19.2185 57.0331 18.9532C56.8643 18.6798 56.7799 18.3582 56.7799 17.9884C56.7799 17.5302 56.9085 17.1282 57.1658 16.7825C57.4311 16.4368 57.821 16.1675 58.3355 15.9745C58.8501 15.7816 59.4812 15.6851 60.2288 15.6851C61.3544 15.6851 62.2186 15.9263 62.8216 16.4087C63.4326 16.883 63.73 17.5382 63.714 18.3743H62.1463C62.1141 17.9 61.9131 17.5583 61.5433 17.3493C61.1815 17.1403 60.7233 17.0357 60.1685 17.0357C59.654 17.0357 59.2279 17.1121 58.8902 17.2649C58.5606 17.4176 58.3958 17.6789 58.3958 18.0487C58.3958 18.1934 58.436 18.3221 58.5164 18.4346C58.5968 18.5391 58.7335 18.6316 58.9264 18.712C59.1194 18.7924 59.3807 18.8687 59.7103 18.9411C60.0399 19.0135 60.4499 19.0858 60.9403 19.1582C61.3986 19.2225 61.8126 19.3109 62.1824 19.4235C62.5603 19.528 62.8819 19.6687 63.1472 19.8456C63.4205 20.0144 63.6295 20.2314 63.7743 20.4968C63.919 20.7621 63.9913 21.0877 63.9913 21.4736C63.9913 21.9479 63.8667 22.3619 63.6175 22.7157C63.3763 23.0614 62.9984 23.3307 62.4839 23.5236C61.9774 23.7166 61.3182 23.8131 60.5062 23.8131C59.9273 23.8131 59.4168 23.7528 58.9747 23.6322C58.5325 23.5035 58.1506 23.3347 57.829 23.1257C57.5075 22.9166 57.2462 22.6875 57.0452 22.4383C56.8442 22.1891 56.6995 21.9398 56.611 21.6906C56.5306 21.4414 56.4985 21.2163 56.5146 21.0153Z" fill="white"/>
<path d="M76.4723 21.0153H78.1003C78.1325 21.2886 78.2571 21.5379 78.4741 21.763C78.6992 21.98 78.9927 22.1529 79.3545 22.2815C79.7162 22.4021 80.1222 22.4624 80.5725 22.4624C80.9825 22.4624 81.3201 22.4182 81.5854 22.3298C81.8507 22.2413 82.0477 22.1167 82.1763 21.9559C82.305 21.7951 82.3693 21.6022 82.3693 21.3771C82.3693 21.16 82.2889 20.9952 82.1281 20.8826C81.9673 20.7621 81.7141 20.6656 81.3684 20.5932C81.0227 20.5128 80.5684 20.4324 80.0057 20.352C79.5635 20.2877 79.1454 20.1993 78.7515 20.0867C78.3576 19.9661 78.0079 19.8134 77.7023 19.6285C77.4049 19.4436 77.1677 19.2185 76.9909 18.9532C76.822 18.6798 76.7376 18.3582 76.7376 17.9884C76.7376 17.5302 76.8662 17.1282 77.1235 16.7825C77.3888 16.4368 77.7787 16.1675 78.2933 15.9745C78.8078 15.7816 79.4389 15.6851 80.1866 15.6851C81.3121 15.6851 82.1763 15.9263 82.7793 16.4087C83.3903 16.883 83.6878 17.5382 83.6717 18.3743H82.104C82.0718 17.9 81.8708 17.5583 81.501 17.3493C81.1392 17.1403 80.681 17.0357 80.1263 17.0357C79.6117 17.0357 79.1856 17.1121 78.848 17.2649C78.5184 17.4176 78.3536 17.6789 78.3536 18.0487C78.3536 18.1934 78.3937 18.3221 78.4741 18.4346C78.5545 18.5391 78.6912 18.6316 78.8842 18.712C79.0771 18.7924 79.3384 18.8687 79.668 18.9411C79.9976 19.0135 80.4076 19.0858 80.8981 19.1582C81.3563 19.2225 81.7703 19.3109 82.1402 19.4235C82.518 19.528 82.8396 19.6687 83.1049 19.8456C83.3783 20.0144 83.5873 20.2314 83.732 20.4968C83.8767 20.7621 83.9491 21.0877 83.9491 21.4736C83.9491 21.9479 83.8244 22.3619 83.5752 22.7157C83.334 23.0614 82.9562 23.3307 82.4416 23.5236C81.9352 23.7166 81.2759 23.8131 80.4639 23.8131C79.8851 23.8131 79.3746 23.7528 78.9324 23.6322C78.4902 23.5035 78.1083 23.3347 77.7868 23.1257C77.4652 22.9166 77.2039 22.6875 77.0029 22.4383C76.8019 22.1891 76.6572 21.9398 76.5688 21.6906C76.4884 21.4414 76.4562 21.2163 76.4723 21.0153Z" fill="white"/>
<path d="M104.859 22.0524L104.353 22.2574V15.8419H105.957V23.6442H104.353L98.046 17.4819L98.5525 17.2769V23.6442H96.9486V15.8419H98.5525L104.859 22.0524Z" fill="white"/>
<path d="M67.9181 19.76V18.4214H73.0794V19.76H67.9181ZM65.9765 21.4603L69.6425 13.658H71.3791L75.0813 21.4603H73.3327L70.1249 14.4298H70.8967L67.7131 21.4603H65.9765Z" fill="white"/>
<path d="M88.1891 19.7613V18.4227H93.3504V19.7613H88.1891ZM86.2475 21.4617L89.9135 13.6593H91.6501L95.3523 21.4617H93.6037L90.3959 14.4311H91.1677L87.9841 21.4617H86.2475Z" fill="white"/>
<path d="M110.807 19.76V18.4214H115.969V19.76H110.807ZM108.866 21.4603L112.532 13.658H114.268L117.971 21.4603H116.222L113.014 14.4298H113.786L110.602 21.4603H108.866Z" fill="white"/>
<path d="M72.8876 32.6247V28.6501H73.6253V32.6247C73.6253 32.9259 73.5823 33.2056 73.4962 33.4638C73.4101 33.722 73.281 33.9464 73.1089 34.137C72.9429 34.3276 72.7369 34.4752 72.491 34.5797C72.2451 34.6842 71.9623 34.7364 71.6426 34.7364C71.366 34.7364 71.1077 34.6965 70.868 34.6166C70.6282 34.5305 70.4192 34.4106 70.2409 34.2569C70.0626 34.0971 69.9181 33.9034 69.8075 33.6759C69.703 33.4485 69.6446 33.1933 69.6323 32.9105H70.3054C70.3669 33.2855 70.5176 33.5683 70.7573 33.7589C70.9971 33.9495 71.2922 34.0448 71.6426 34.0448C71.9316 34.0448 72.1652 33.9833 72.3435 33.8604C72.5279 33.7374 72.6632 33.5714 72.7492 33.3624C72.8414 33.1472 72.8876 32.9013 72.8876 32.6247ZM79.1594 28.6501H79.8971V34.6442H79.1594V28.6501ZM87.0373 34.6442L84.8794 28.6501H85.6725L87.5261 33.8512H87.3048L89.0846 28.6501H89.8776L91.6575 33.8512H91.4361L93.2897 28.6501H94.0643L91.9249 34.6442H91.1503L89.3797 29.2587H89.5826L87.812 34.6442H87.0373ZM99.0206 33.0765V32.3849H101.898V33.0765H99.0206ZM97.8033 34.6442L100.081 28.6501H100.856L103.152 34.6442H102.359L100.358 29.2218H100.579L98.5779 34.6442H97.8033Z" fill="white"/>
</svg>
